<svg width="112" height="29" viewBox="0 0 112 29" fill="none" xmlns="http://www.w3.org/2000/svg">
<path d="M18.7786 20.44C18.7786 22.6267 17.7919 24.4667 15.8186 25.96C13.8453 27.4267 11.5786 28.16 9.01859 28.16C6.48526 28.16 4.39193 27.5067 2.73859 26.2C1.08526 24.8667 0.258594 23.6133 0.258594 22.44C0.258594 21.64 0.498594 21.24 0.978594 21.24C1.40526 21.24 2.24526 21.88 3.49859 23.16C3.97859 23.6133 4.61859 24.04 5.41859 24.44C6.24526 24.84 7.11193 25.04 8.01859 25.04C9.88526 25.04 11.5386 24.56 12.9786 23.6C14.4453 22.64 15.1786 21.6 15.1786 20.48C15.1786 19.76 14.6986 18.84 13.7386 17.72C12.7786 16.6 11.7119 15.5467 10.5386 14.56C9.39193 13.5467 8.33859 12.4667 7.37859 11.32C6.41859 10.1733 5.93859 9.26667 5.93859 8.6C5.93859 7.93333 6.07193 7.22667 6.33859 6.48C6.60526 5.73333 6.89859 5.18667 7.21859 4.84C8.25859 3.69333 9.87193 2.64 12.0586 1.68C14.2719 0.719999 16.1253 0.239998 17.6186 0.239998C18.3919 0.239998 19.0453 0.493332 19.5786 0.999998C20.1119 1.50666 20.3786 2.04 20.3786 2.6C20.3786 2.86667 20.0986 3.08 19.5386 3.24C18.9786 3.4 18.1253 3.61333 16.9786 3.88C15.8586 4.12 14.8586 4.41333 13.9786 4.76C10.9119 5.93333 9.37859 7.06667 9.37859 8.16C9.37859 8.74667 10.9386 10.3867 14.0586 13.08C15.2586 14.12 16.3386 15.3333 17.2986 16.72C18.2853 18.08 18.7786 19.32 18.7786 20.44ZM26.9886 28.4C25.4419 28.4 23.9886 27.8 22.6286 26.6C21.2686 25.3733 20.5886 23.9333 20.5886 22.28C20.5886 20.6 21.1486 18.6667 22.2686 16.48C23.3886 14.2933 24.8286 12.4267 26.5886 10.88C28.3753 9.33333 30.1086 8.56 31.7886 8.56C32.8819 8.56 33.8419 9.05333 34.6686 10.04C35.4953 11.0267 35.9086 11.8933 35.9086 12.64C35.9086 12.8533 35.8419 13.04 35.7086 13.2C35.5753 13.3333 35.3753 13.4 35.1086 13.4C34.8686 13.4 34.4286 13.16 33.7886 12.68C33.1486 12.2 32.5753 11.96 32.0686 11.96C30.6286 11.96 28.9486 13.2267 27.0286 15.76C25.1086 18.2933 24.1486 20.5067 24.1486 22.4C24.1486 23.2267 24.4019 23.88 24.9086 24.36C25.4419 24.84 26.2819 25.08 27.4286 25.08C28.6019 25.08 29.6686 24.9467 30.6286 24.68C31.6153 24.3867 32.3753 24.1067 32.9086 23.84C33.4419 23.5467 33.8553 23.4 34.1486 23.4C34.6553 23.4 34.9086 23.6533 34.9086 24.16C34.9086 24.9333 33.9753 25.84 32.1086 26.88C30.2686 27.8933 28.5619 28.4 26.9886 28.4ZM38.7611 13.44L38.6411 10.44C38.6411 9.18667 38.9344 8.56 39.5211 8.56C40.0278 8.56 40.5078 8.89333 40.9611 9.56C41.4411 10.2 41.6811 10.9733 41.6811 11.88C41.6811 12.76 41.6544 13.4267 41.6011 13.88C43.9211 10.36 46.1211 8.6 48.2011 8.6C49.5078 8.6 50.1611 8.92 50.1611 9.56C50.1611 9.88 50.0144 10.1733 49.7211 10.44C49.4278 10.7067 48.9611 11.0133 48.3211 11.36C46.9078 11.9733 45.7078 12.92 44.7211 14.2C43.7611 15.4533 42.9744 16.88 42.3611 18.48C41.7478 20.08 41.2544 21.4267 40.8811 22.52C40.5344 23.6133 40.2678 24.4667 40.0811 25.08C39.8944 25.6933 39.6811 26.2933 39.4411 26.88C39.0144 27.9467 38.5211 28.48 37.9611 28.48C37.5078 28.48 37.1344 28.2267 36.8411 27.72C36.5744 27.1867 36.4411 26.68 36.4411 26.2C36.4411 25.6933 36.6678 24.7067 37.1211 23.24C38.2144 19.88 38.7611 16.6133 38.7611 13.44ZM63.5633 15.2C63.5633 16.6133 62.7899 17.7733 61.2433 18.68C59.7233 19.56 57.9899 20 56.0433 20C54.1233 20 52.3766 19.7867 50.8033 19.36C50.4299 20.5333 50.2433 21.5867 50.2433 22.52C50.2433 23.4267 50.5233 24.1333 51.0833 24.64C51.6699 25.1467 52.6166 25.4 53.9233 25.4C55.2566 25.4 56.6166 25.1733 58.0033 24.72C59.4166 24.24 60.1899 24 60.3233 24C61.0166 24 61.3633 24.2667 61.3633 24.8C61.3633 25.52 60.5499 26.3067 58.9233 27.16C57.2966 27.9867 55.7099 28.4 54.1633 28.4C52.0833 28.4 50.3899 27.7867 49.0833 26.56C47.7766 25.3067 47.1233 23.7333 47.1233 21.84C47.1233 19.9467 47.6299 17.9733 48.6433 15.92C49.6566 13.84 50.9633 12.0933 52.5633 10.68C54.1633 9.26667 55.7499 8.56 57.3233 8.56C58.8966 8.56 60.3233 9.30667 61.6033 10.8C62.9099 12.2933 63.5633 13.76 63.5633 15.2ZM57.5233 11.72C56.5366 11.72 55.5099 12.24 54.4433 13.28C53.3766 14.2933 52.4699 15.56 51.7233 17.08C52.7899 17.32 54.0033 17.44 55.3633 17.44C56.7233 17.44 57.9099 17.2267 58.9233 16.8C59.9366 16.3467 60.4433 15.76 60.4433 15.04C60.4433 14.32 60.1099 13.5867 59.4433 12.84C58.8033 12.0933 58.1633 11.72 57.5233 11.72ZM68.7311 2.88C68.7311 2.34666 68.9444 1.84 69.3711 1.36C69.7978 0.879998 70.2244 0.639998 70.6511 0.639998C71.1044 0.639998 71.6378 1.18666 72.2511 2.28C72.8644 3.34667 73.1711 4.24 73.1711 4.96C73.1711 5.22667 73.0511 5.46667 72.8111 5.68C72.5711 5.89333 72.3178 6 72.0511 6C71.4111 6 70.6911 5.61333 69.8911 4.84C69.1178 4.06667 68.7311 3.41333 68.7311 2.88ZM68.5311 8.56C69.0378 8.56 69.5178 8.86667 69.9711 9.48C70.4244 10.0933 70.6511 10.6933 70.6511 11.28C70.6511 11.8667 70.2644 13.6267 69.4911 16.56C68.7178 19.4667 67.7444 22.7333 66.5711 26.36C66.1178 27.6933 65.5444 28.36 64.8511 28.36C64.4778 28.36 64.1578 28.2133 63.8911 27.92C63.6244 27.6 63.4911 27.2533 63.4911 26.88C63.4911 26.48 63.5844 25.8667 63.7711 25.04C63.9844 24.1867 64.2778 23.0667 64.6511 21.68C65.0511 20.2667 65.3578 19.12 65.5711 18.24C65.8111 17.36 66.0511 16.3733 66.2911 15.28C66.5311 14.16 66.7178 13.2667 66.8511 12.6C67.0111 11.9067 67.1844 11.2133 67.3711 10.52C67.7444 9.21333 68.1311 8.56 68.5311 8.56ZM87.2223 12.8L86.9423 20.32C86.9423 22.4 87.0357 23.9067 87.2223 24.84C88.369 23.64 89.3557 22.24 90.1823 20.64C91.0357 19.0133 91.6623 17.5067 92.0623 16.12C92.489 14.7333 92.849 13.44 93.1423 12.24C93.4623 11.0133 93.7557 10.04 94.0223 9.32C94.289 8.6 94.5957 8.24 94.9423 8.24C95.449 8.24 95.9023 8.45333 96.3023 8.88C96.7023 9.28 96.9023 9.74667 96.9023 10.28C96.9023 11.64 96.289 13.88 95.0623 17C94.0223 19.88 92.6623 22.52 90.9823 24.92C89.3023 27.2933 87.9957 28.48 87.0623 28.48C86.129 28.48 85.4223 27.96 84.9423 26.92C84.489 25.88 84.2357 23.8933 84.1823 20.96C84.129 18 84.169 15.44 84.3023 13.28C82.4623 18.2933 80.8357 22.08 79.4223 24.64C78.009 27.2 76.889 28.48 76.0623 28.48C75.689 28.48 75.289 28.3067 74.8623 27.96C74.4623 27.6133 74.1423 27.16 73.9023 26.6C73.3157 25.1867 72.809 22.4933 72.3823 18.52C71.9823 14.52 71.7823 11.6667 71.7823 9.96C71.7823 8.86667 72.1157 8.32 72.7823 8.32C73.369 8.32 73.9023 8.65333 74.3823 9.32C74.889 9.98667 75.1823 10.6533 75.2623 11.32C75.3423 11.96 75.409 13.7733 75.4623 16.76C75.5423 19.72 75.7957 22.36 76.2223 24.68C77.3157 22.7867 78.409 20.4133 79.5023 17.56C80.6223 14.7067 81.529 12.4667 82.2223 10.84C82.9423 9.21333 83.5957 8.4 84.1823 8.4C85.0623 8.4 85.7823 8.81333 86.3423 9.64C86.929 10.44 87.2223 11.4933 87.2223 12.8ZM108.136 15.36C108.136 14.4533 107.99 13.6 107.696 12.8C107.403 11.9733 106.976 11.3733 106.416 11C104.576 11.5067 102.99 12.9333 101.656 15.28C100.35 17.6 99.6964 19.7867 99.6964 21.84C99.6964 23.8933 100.203 25.1733 101.216 25.68C103.136 25.3067 104.763 24 106.096 21.76C107.456 19.4933 108.136 17.36 108.136 15.36ZM97.6164 15.72C98.5497 13.64 99.7631 11.9333 101.256 10.6C102.776 9.24 104.323 8.56 105.896 8.56C107.496 8.56 108.83 9.24 109.896 10.6C110.963 11.9333 111.496 13.5733 111.496 15.52C111.496 17.44 111.03 19.4133 110.096 21.44C109.163 23.44 107.87 25.1067 106.216 26.44C104.59 27.7467 102.856 28.4 101.016 28.4C99.6564 28.4 98.5231 27.7733 97.6164 26.52C96.7097 25.2667 96.2564 23.68 96.2564 21.76C96.2564 19.8133 96.7097 17.8 97.6164 15.72Z" fill="white"/>
</svg>
