<?xml version="1.0" standalone="no"?>
<!DOCTYPE svg PUBLIC "-//W3C//DTD SVG 20010904//EN"
 "http://www.w3.org/TR/2001/REC-SVG-20010904/DTD/svg10.dtd">
<svg version="1.0" xmlns="http://www.w3.org/2000/svg"
 width="1024.000000pt" height="325.000000pt" viewBox="0 0 1024.000000 325.000000"
 preserveAspectRatio="xMidYMid meet">

<g transform="translate(0.000000,325.000000) scale(0.100000,-0.100000)"
fill="#000000" stroke="none">
<path d="M1620 2766 c-350 -54 -627 -203 -766 -414 -91 -137 -116 -272 -74
-404 21 -65 32 -81 94 -143 111 -110 210 -156 566 -261 371 -111 473 -159 527
-251 60 -102 25 -233 -98 -367 -164 -179 -429 -296 -671 -296 -407 0 -560 195
-327 416 152 143 374 217 636 212 122 -3 133 -1 147 17 36 47 8 95 -66 116
-64 18 -306 16 -408 -4 -310 -61 -567 -217 -670 -407 -31 -58 -35 -73 -35
-140 0 -88 24 -139 98 -207 210 -194 742 -221 1194 -62 121 43 205 87 298 156
174 129 260 277 272 469 10 155 -21 241 -121 339 -98 96 -236 160 -516 239
-312 89 -375 109 -450 145 -129 62 -192 148 -175 240 44 234 525 493 869 468
148 -11 226 -57 226 -134 0 -51 -26 -98 -93 -170 -82 -87 -205 -148 -327 -163
-68 -8 -89 -14 -103 -32 -22 -27 -16 -63 18 -97 21 -22 31 -24 106 -23 141 3
266 30 364 79 132 66 237 168 270 262 63 179 -73 351 -321 407 -94 21 -355 27
-464 10z"/>
<path d="M6435 2496 c-43 -19 -92 -78 -106 -128 -21 -80 17 -165 93 -208 57
-32 150 -26 203 14 103 79 97 237 -13 307 -52 33 -123 39 -177 15z"/>
<path d="M3828 2167 c-81 -75 -54 -243 56 -345 l47 -44 -6 -76 c-18 -232 -70
-525 -125 -711 -42 -139 -38 -182 14 -195 35 -9 73 11 89 48 47 102 109 376
151 666 14 95 28 175 30 178 3 2 18 0 33 -6 15 -6 40 -13 56 -16 32 -7 33 -17
12 -115 -47 -226 -61 -537 -30 -686 28 -135 84 -222 170 -268 31 -16 58 -21
120 -21 69 -1 89 4 147 31 151 71 238 227 238 425 0 77 -12 98 -54 98 -40 0
-60 -21 -76 -79 -19 -71 -87 -221 -112 -248 -35 -38 -53 -45 -82 -32 -79 37
-95 337 -35 689 19 113 78 313 123 413 l17 38 -48 21 c-58 26 -158 35 -206 19
-20 -7 -58 -35 -84 -62 -52 -54 -83 -62 -147 -35 -27 11 -35 21 -40 51 -16 85
-69 207 -106 246 -32 34 -43 39 -82 39 -33 0 -52 -6 -70 -23z"/>
<path d="M8266 2140 c-41 -13 -85 -58 -92 -96 -4 -25 3 -50 35 -115 50 -102
67 -179 82 -374 13 -170 7 -356 -16 -464 -31 -148 -104 -278 -165 -294 -33 -8
-75 38 -94 104 -41 137 -50 227 -51 499 0 288 12 399 45 435 25 26 26 68 3 91
-14 14 -30 16 -98 11 -146 -11 -204 -46 -239 -143 -7 -22 -23 -110 -35 -195
-36 -262 -52 -351 -78 -434 -49 -156 -107 -251 -149 -243 -33 6 -46 74 -51
259 -6 194 6 335 39 469 24 101 52 160 79 167 16 4 19 14 19 59 l0 54 -75 0
c-206 0 -316 -134 -361 -444 -21 -143 -15 -530 11 -645 35 -156 70 -221 139
-252 50 -23 77 -23 144 -4 90 27 223 172 286 313 10 23 22 42 27 42 4 0 19
-36 33 -81 56 -174 150 -271 275 -286 180 -21 353 157 444 457 111 366 125
902 27 1040 -43 61 -119 90 -184 70z"/>
<path d="M9292 2041 c-152 -44 -265 -169 -332 -367 -94 -276 -88 -715 12 -924
34 -71 112 -146 175 -170 64 -24 162 -26 222 -5 171 60 319 308 377 630 27
152 25 453 -3 557 -43 153 -107 243 -199 278 -68 25 -165 25 -252 1z m128
-191 c0 -34 7 -46 53 -93 43 -42 57 -65 70 -113 64 -228 37 -530 -64 -725 -32
-62 -50 -85 -75 -97 -91 -43 -147 71 -160 325 -14 264 43 557 137 710 27 44
39 42 39 -7z"/>
<path d="M5539 2020 c-93 -15 -165 -55 -251 -141 -64 -64 -85 -94 -126 -181
-80 -165 -114 -329 -114 -547 0 -279 105 -497 280 -583 63 -31 73 -33 172 -32
85 0 116 5 163 23 72 28 165 113 212 192 77 131 118 317 80 359 -19 20 -41 25
-70 14 -16 -6 -55 -73 -55 -94 0 -21 -58 -157 -84 -199 -32 -51 -89 -81 -153
-81 -119 0 -191 109 -211 319 -9 87 -6 93 38 106 50 15 156 74 217 119 110 83
197 222 223 354 17 82 8 197 -19 249 -21 43 -79 99 -115 113 -38 14 -128 19
-187 10z m61 -189 c5 -11 10 -58 10 -104 0 -120 -35 -216 -114 -307 -35 -42
-85 -80 -104 -80 -15 0 -12 38 18 186 45 219 147 384 190 305z"/>
<path d="M3195 1999 c-159 -20 -289 -125 -379 -305 -133 -266 -153 -724 -41
-945 53 -105 147 -180 254 -205 161 -38 313 5 422 119 84 88 173 300 156 369
-9 36 -49 62 -83 54 -26 -7 -47 -45 -89 -159 -37 -103 -117 -177 -192 -177
-67 0 -109 22 -143 77 -62 98 -85 258 -69 496 16 233 61 415 119 477 58 62 83
33 96 -110 4 -41 11 -86 16 -100 38 -102 156 -103 216 -1 24 41 27 56 27 136
-1 94 -10 123 -62 192 -30 41 -96 79 -148 85 -22 3 -67 2 -100 -3z"/>
<path d="M6376 1985 c-46 -16 -101 -66 -126 -115 -36 -71 -75 -299 -86 -505
-8 -147 9 -371 37 -485 57 -228 178 -334 344 -300 112 23 224 168 270 350 21
81 23 163 6 184 -16 19 -74 21 -89 4 -5 -7 -24 -55 -41 -105 -35 -105 -82
-204 -112 -234 -42 -42 -79 17 -98 155 -17 117 -14 450 5 575 8 58 35 187 59
286 24 99 42 181 40 183 -8 9 -84 22 -125 21 -25 0 -62 -6 -84 -14z"/>
</g>
</svg>
